<?xml version="1.0" encoding="utf-8"?>
<!-- Generator: Adobe Illustrator 16.0.0, SVG Export Plug-In . SVG Version: 6.00 Build 0)  -->
<!DOCTYPE svg PUBLIC "-//W3C//DTD SVG 1.1//EN" "http://www.w3.org/Graphics/SVG/1.1/DTD/svg11.dtd">
<svg version="1.1" id="Layer_1" xmlns="http://www.w3.org/2000/svg" xmlns:xlink="http://www.w3.org/1999/xlink" x="0px" y="0px"
	 width="500px" height="500px" viewBox="0 0 500 500" enable-background="new 0 0 500 500" xml:space="preserve">
<g>
	<g>
		<path fill="#FFFFFF" d="M250.246,45.498c66.753,0,74.659,0.255,101.023,1.458c24.374,1.112,37.61,5.184,46.421,8.607
			c10.858,4.008,20.681,10.398,28.745,18.702c8.304,8.064,14.693,17.886,18.7,28.745c3.424,8.81,7.497,22.047,8.608,46.422
			c1.203,26.362,1.458,34.268,1.458,101.023c0,66.755-0.255,74.66-1.458,101.024c-1.112,24.375-5.186,37.61-8.608,46.421
			c-8.41,21.803-25.643,39.036-47.445,47.446c-8.81,3.424-22.047,7.496-46.421,8.607c-26.357,1.203-34.264,1.458-101.023,1.458
			s-74.663-0.255-101.023-1.458c-24.375-1.112-37.611-5.186-46.421-8.607c-10.858-4.008-20.681-10.398-28.745-18.701
			c-8.303-8.063-14.693-17.887-18.701-28.745c-3.423-8.81-7.496-22.046-8.607-46.421c-1.203-26.362-1.458-34.27-1.458-101.024
			c0-66.755,0.255-74.659,1.458-101.023c1.112-24.375,5.184-37.611,8.607-46.422c4.008-10.859,10.399-20.682,18.703-28.746
			c8.064-8.303,17.887-14.693,28.745-18.701c8.81-3.424,22.046-7.497,46.421-8.608c26.363-1.203,34.269-1.458,101.023-1.458
			 M250.248,0.452c-67.896,0-76.412,0.288-103.073,1.504c-26.61,1.215-44.783,5.44-60.685,11.621
			c-16.681,6.278-31.792,16.118-44.279,28.836c-12.72,12.486-22.563,27.598-28.844,44.28c-6.175,15.902-10.4,34.075-11.61,60.686
			c-1.222,26.662-1.509,35.178-1.509,103.074c0,67.896,0.288,76.414,1.509,103.074c1.215,26.61,5.44,44.783,11.621,60.685
			c6.277,16.682,16.118,31.792,28.835,44.279c12.487,12.719,27.598,22.559,44.279,28.837c15.903,6.181,34.075,10.405,60.684,11.62
			c26.666,1.217,35.179,1.505,103.074,1.505c67.896,0,76.413-0.288,103.073-1.505c26.611-1.215,44.783-5.439,60.685-11.62
			c33.58-12.988,60.127-39.535,73.115-73.116c6.18-15.902,10.405-34.075,11.62-60.685c1.217-26.665,1.505-35.18,1.505-103.074
			c0-67.896-0.288-76.413-1.505-103.074c-1.215-26.611-5.44-44.783-11.62-60.685c-6.277-16.682-16.118-31.793-28.836-44.28
			c-12.487-12.72-27.6-22.562-44.282-28.841C398.103,7.396,379.93,3.171,353.319,1.961c-26.661-1.222-35.178-1.509-103.073-1.509
			l0,0H250.248z"/>
		<circle fill="#FFFFFF" cx="382.323" cy="114.259" r="30"/>
	</g>
	<path fill="#FFFFFF" d="M398.985,247.709l-46.662,62.215l-46.661-62.215h26.544c0-46.023-37.31-83.333-83.333-83.333
		c-46.023,0-83.332,37.31-83.332,83.334c0.001,46.022,37.31,83.332,83.333,83.332c23.479,0,44.686-9.715,59.833-25.34l32.348,31.354
		c-23.333,24.071-56.011,39.032-92.182,39.032c-70.901,0-128.378-57.478-128.378-128.379c0-70.902,57.477-128.379,128.378-128.379
		c70.901,0,128.377,57.478,128.377,128.379H398.985z"/>
</g>
</svg>
